<svg width="132" height="124" viewBox="0 0 132 124" fill="none" xmlns="http://www.w3.org/2000/svg">
<path d="M66 0C102.506 0 132 27.7062 132 62C132 96.2938 102.506 124 66 124C29.4937 124 0 96.2938 0 62C0 27.7062 29.4937 0 66 0Z" fill="#FFEFEC" fill-opacity="0.94"/>
<path d="M94.875 69.75H37.125V110.438H94.875V69.75Z" fill="#FFAC48"/>
<path d="M26.8125 124C26.8125 105.981 44.3437 91.0625 66 91.0625C87.45 91.0625 105.187 105.981 105.187 124" fill="#FF3154"/>
<path d="M66 108.5C72.8345 108.5 78.375 103.295 78.375 96.875C78.375 90.4547 72.8345 85.25 66 85.25C59.1655 85.25 53.625 90.4547 53.625 96.875C53.625 103.295 59.1655 108.5 66 108.5Z" fill="white"/>
<path d="M74.4562 87.7688V96.6813C74.4562 101.138 70.5375 104.625 66 104.625C63.7312 104.625 61.4625 103.656 60.0187 102.3C58.575 100.75 57.5437 98.8126 57.5437 96.6813V87.7688H74.4562Z" fill="#F7BE8F"/>
<path d="M74.8688 93.5813C71.9813 94.55 69.0938 94.9375 66 94.9375C62.9063 94.9375 60.0188 94.55 57.1313 93.5813L53.625 92.0313C47.025 88.5438 42.4875 82.7313 41.4563 76.1438C41.25 74.9813 41.25 74.0125 41.25 73.0438C41.25 71.1063 41.25 67.0375 41.25 63.55C41.25 60.2562 41.25 44.5625 41.25 44.5625H90.75C90.75 44.5625 90.75 60.2562 90.75 63.55C90.75 67.0375 90.75 70.9125 90.75 73.0438C90.75 74.0125 90.75 75.175 90.5438 76.1438C90.1313 79.05 89.1 81.5688 87.45 84.0875C85.3875 87.3813 82.2938 90.0938 78.375 92.0313C77.1375 92.6125 76.1063 93 74.8688 93.5813Z" fill="#FAD3A1"/>
<path d="M54.6563 62C56.3063 62 57.75 63.3562 57.75 64.9062C57.75 66.4562 56.3063 67.8125 54.6563 67.8125C53.0063 67.8125 51.5625 66.4562 51.5625 64.9062C51.5625 63.3562 53.0063 62 54.6563 62Z" fill="#262647"/>
<path d="M74.25 64.9062C74.25 63.3562 75.6938 62 77.3438 62C78.9938 62 80.4375 63.3562 80.4375 64.9062C80.4375 66.4562 78.9938 67.8125 77.3438 67.8125C75.6938 67.8125 74.25 66.4562 74.25 64.9062Z" fill="#262647"/>
<path d="M68.0625 75.5625C68.0625 76.725 67.2375 77.5 66 77.5C64.7625 77.5 63.9375 76.725 63.9375 75.5625H68.0625Z" fill="#F7BE8F"/>
<path d="M66 86.2188C62.7 86.2188 59.6062 84.475 57.9562 81.9563C57.75 81.375 57.75 80.7938 58.3687 80.6C58.7812 80.4063 59.4 80.4063 59.8125 80.9875C61.05 83.1188 63.525 84.475 66 84.475C68.475 84.475 70.95 83.1188 72.1875 80.9875C72.3937 80.6 73.0125 80.4063 73.6312 80.6C74.0437 80.7938 74.25 81.375 74.0437 81.9563C72.3937 84.475 69.3 86.2188 66 86.2188Z" fill="#F4B28E"/>
<path d="M94.875 50.375V63.9375H90.75V53.475L79.6125 45.3375C76.5188 53.0875 67.4438 58.5125 58.3688 58.5125C52.1813 58.5125 45.1688 55.9938 41.25 51.925V53.6688V63.9375H37.125V47.4688C37.125 41.4625 39.1875 36.6188 42.6938 32.9375C48.0563 27.125 56.1 23.0563 63.9375 23.25C70.3313 23.4438 75.075 25.3813 82.5 23.25C83.1188 24.2188 83.5313 25.575 83.1188 27.5125C82.9125 29.0625 82.7063 29.45 82.5 30.4188C89.7188 35.4563 94.875 41.075 94.875 50.375Z" fill="#FFAC48"/>
<path d="M41.25 71.6875C37.7437 71.6875 35.0625 69.1687 35.0625 65.875C35.0625 64.325 35.6812 62.775 36.9187 61.8062C37.95 60.8375 39.6 60.0625 41.25 60.0625V71.6875Z" fill="#F7BE8F"/>
<path d="M90.75 71.6875C94.2563 71.6875 96.9375 69.1687 96.9375 65.875C96.9375 64.325 96.3187 62.775 95.0812 61.8062C94.05 60.6437 92.4 60.0625 90.75 60.0625V71.6875Z" fill="#F7BE8F"/>
</svg>
