<svg width="26" height="28" viewBox="0 0 26 28" fill="none" xmlns="http://www.w3.org/2000/svg">
<path d="M13 0C5.832 0 0 6.18086 0 13.7776C0 21.3744 5.832 27.5553 13 27.5553C20.168 27.5553 26 21.3744 26 13.7776C26 6.18086 20.168 0 13 0ZM9.66602 4.23927H16.332C19.457 4.23927 22 6.93335 22 10.2442V17.309C22 20.6209 19.458 23.316 16.334 23.316H9.66797C6.54297 23.316 4 20.6219 4 17.3111V10.2463C4 6.93436 6.54202 4.23927 9.66602 4.23927ZM9.66602 6.35891C7.64502 6.35891 6 8.10334 6 10.2463V17.3111C6 19.4529 7.64597 21.1964 9.66797 21.1964H16.334C18.355 21.1964 20 19.4519 20 17.309V10.2442C20 8.10233 18.354 6.35891 16.332 6.35891H9.66602ZM17.668 8.12458C18.036 8.12458 18.334 8.44043 18.334 8.83044C18.334 9.22045 18.036 9.53836 17.668 9.53836C17.3 9.53836 17 9.22045 17 8.83044C17 8.44043 17.3 8.12458 17.668 8.12458ZM13 8.47855C15.757 8.47855 18 10.8557 18 13.7776C18 16.6996 15.757 19.0767 13 19.0767C10.243 19.0767 8 16.6996 8 13.7776C8 10.8557 10.243 8.47855 13 8.47855ZM13 10.5982C12.2044 10.5982 11.4413 10.9332 10.8787 11.5294C10.3161 12.1257 10 12.9344 10 13.7776C10 14.6209 10.3161 15.4296 10.8787 16.0259C11.4413 16.6221 12.2044 16.9571 13 16.9571C13.7956 16.9571 14.5587 16.6221 15.1213 16.0259C15.6839 15.4296 16 14.6209 16 13.7776C16 12.9344 15.6839 12.1257 15.1213 11.5294C14.5587 10.9332 13.7956 10.5982 13 10.5982V10.5982Z" fill="#643318" fill-opacity="0.65"/>
</svg>
