<svg width="24" height="26" viewBox="0 0 24 26" fill="none" xmlns="http://www.w3.org/2000/svg">
<path d="M12 0.119751C5.373 0.119751 0 5.81415 0 12.8376C0 15.2234 0.632342 17.4478 1.71094 19.3559L0.107422 25.5554L6.08203 23.8932C7.82935 24.946 9.84649 25.5554 12 25.5554C18.627 25.5554 24 19.861 24 12.8376C24 5.81415 18.627 0.119751 12 0.119751ZM7.89258 6.90507C8.08758 6.90507 8.28794 6.90381 8.46094 6.91335C8.67494 6.91865 8.90786 6.93526 9.13086 7.45775C9.39586 8.0788 9.97287 9.63681 10.0469 9.79473C10.1209 9.95264 10.1733 10.1387 10.0703 10.3453C9.97231 10.5573 9.92134 10.6856 9.77734 10.8732C9.62834 11.0555 9.46508 11.2819 9.33008 11.4196C9.18108 11.5776 9.02722 11.7507 9.19922 12.0655C9.37122 12.3802 9.96856 13.4121 10.8516 14.2451C11.9866 15.3198 12.9442 15.65 13.2422 15.808C13.5402 15.9659 13.7128 15.9413 13.8848 15.7293C14.0618 15.5226 14.6281 14.8135 14.8281 14.4977C15.0231 14.1818 15.2222 14.2365 15.4922 14.3404C15.7662 14.4442 17.2274 15.2071 17.5254 15.365C17.8234 15.5229 18.0187 15.6011 18.0938 15.7293C18.1707 15.8618 18.1708 16.4924 17.9238 17.2279C17.6768 17.9624 16.4639 18.6726 15.9199 18.7224C15.3709 18.7765 14.8586 18.984 12.3516 17.9379C9.32756 16.6757 7.42048 13.3931 7.27148 13.1812C7.12248 12.9745 6.06055 11.4745 6.06055 9.9272C6.06055 8.37457 6.82866 7.61419 7.09766 7.29836C7.37166 6.98253 7.69258 6.90507 7.89258 6.90507Z" fill="#643318" fill-opacity="0.65"/>
</svg>
