<svg width="25" height="24" viewBox="0 0 25 24" fill="none" xmlns="http://www.w3.org/2000/svg">
<path d="M22.1543 0.241385C21.8293 0.256584 21.5264 0.356929 21.2598 0.47115C21.0101 0.577623 20.0558 1.01138 18.5528 1.69449C17.0484 2.3782 15.0565 3.28455 12.9317 4.25296C8.68198 6.18978 3.90422 8.36997 1.45703 9.48581C1.36501 9.52776 1.04392 9.63647 0.703126 9.91844C0.36233 10.2004 0 10.7847 0 11.4357C0 11.9607 0.236068 12.4822 0.533204 12.7936C0.83034 13.105 1.14475 13.2588 1.41407 13.3753C2.39123 13.7978 5.42186 15.1122 5.99415 15.3604C6.19556 16.0142 7.2925 19.5705 7.54689 20.4421C7.71458 21.0173 7.87421 21.3775 8.08205 21.6634C8.18596 21.8063 8.30676 21.9316 8.45314 22.0298C8.51165 22.069 8.5758 22.0992 8.64064 22.127L8.64455 22.1291C8.65949 22.1355 8.67237 22.1463 8.68752 22.1519C8.7161 22.1625 8.73522 22.1638 8.77345 22.1726C8.92578 22.2247 9.07957 22.2575 9.21681 22.2575C9.80198 22.2575 10.1602 21.9159 10.1602 21.9159L10.1817 21.8993L13.1914 19.1401L16.8418 22.7998C16.8932 22.8768 17.3726 23.5739 18.4297 23.5739C19.0574 23.5739 19.5554 23.2401 19.875 22.8846C20.1947 22.5292 20.3939 22.1557 20.4786 21.6861V21.6841C20.5577 21.2404 23.9219 2.93647 23.9219 2.93647L23.9161 2.96131C24.0145 2.48491 24.0403 2.04124 23.9317 1.60342C23.823 1.1656 23.5367 0.746405 23.1817 0.520829C22.8267 0.295304 22.4794 0.226186 22.1543 0.241385ZM21.9668 2.45624C21.962 2.48717 21.9704 2.47162 21.9629 2.50799L21.961 2.52041L21.959 2.53283C21.959 2.53283 18.6365 20.6026 18.5137 21.2908C18.5227 21.2388 18.4816 21.3421 18.4395 21.4046C18.3799 21.3611 18.2578 21.3053 18.2578 21.3053L18.2383 21.2825L13.252 16.2836L9.72658 19.5127L10.7754 15.0623C10.7754 15.0623 17.3316 7.86967 17.7266 7.45105C18.0446 7.11614 18.1114 6.9994 18.1114 6.88388C18.1114 6.72914 18.0353 6.61685 17.8653 6.61685C17.7123 6.61685 17.5065 6.7745 17.3965 6.84869C15.9634 7.81688 9.67184 11.7031 6.85157 13.4415C6.40339 13.2471 3.28967 11.8963 2.23438 11.4399C2.24237 11.4361 2.23974 11.4375 2.24805 11.4336C4.69588 10.3175 9.47165 8.13734 13.7207 6.20079C15.8453 5.23252 17.8387 4.32548 19.3418 3.64232C20.8218 2.96968 21.8502 2.50676 21.9668 2.45624Z" fill="#643318" fill-opacity="0.65"/>
</svg>
